{"title":"Teen Wolf Season 4 EP3 Muted WEB-DL","uid":10579650,"size":414799471,"categoryP":"video","categoryS":"tv_shows","magnet":"?xt=urn:btih:c8b24ba8374fe352d16e5c868f99cc320616a0a5&amp;dn=Teen+Wolf+Season+4+EP3+Muted+WEB-DL&amp;tr=udp%3A%2F%2Ftracker.openbittorrent.com%3A80&amp;tr=udp%3A%2F%2Fopen.demonii.com%3A1337&amp;tr=udp%3A%2F%2Ftracker.coppersurfer.tk%3A6969&amp;tr=udp%3A%2F%2Fexodus.desync.com%3A6969","seeders":10,"leechers":0,"uploader":"jmanwf","files":3,"time":1405664520,"description":"A new Freshman player jeopardizes Scott's position on the Lacrosse team; Stilinksi investigates a savage murder.\n\n\nFormat : MPEG-4\nFormat profile : Base Media / Version 2\nCodec ID : mp42\nFile size : 396 MiB\nDuration : 41mn 56s\nOverall bit rate mode : Variable\nOverall bit rate : 1 318 Kbps\nEncoded date : UTC 2014-07-16 04:28:43\nTagged date : UTC 2014-07-16 05:33:27\nWriting application : HandBrake 0.9.9 2013052900\n\nVideo\nID : 1\nFormat : AVC\nFormat/Info : Advanced Video Codec\nFormat profile : &lt;a class=&quot;__cf_email__&quot; href=&quot;/cdn-cgi/l/email-protection&quot; data-cfemail=&quot;216c40484f616d120f10&quot;&gt;[email&amp;#160;protected]&lt;/a&gt;&lt;script cf-hash='f9e31' type=&quot;text/javascript&quot;&gt;\n/* &lt;![CDATA[ */!function(){try{var t=&quot;currentScript&quot;in document?document.currentScript:function(){for(var t=document.getElementsByTagName(&quot;script&quot;),e=t.length;e--;)if(t[e].getAttribute(&quot;cf-hash&quot;))return t[e]}();if(t&amp;&amp;t.previousSibling){var e,r,n,i,c=t.previousSibling,a=c.getAttribute(&quot;data-cfemail&quot;);if(a){for(e=&quot;&quot;,r=parseInt(a.substr(0,2),16),n=2;a.length-n;n+=2)i=parseInt(a.substr(n,2),16)^r,e+=String.fromCharCode(i);e=document.createTextNode(e),c.parentNode.replaceChild(e,c)}}}catch(u){}}();/* ]]&gt; */&lt;/script&gt;\nFormat settings, CABAC : Yes\nFormat settings, ReFrames : 5 frames\nCodec ID : avc1\nCodec ID/Info : Advanced Video Coding\nDuration : 41mn 56s\nBit rate : 1 217 Kbps\nWidth : 1 280 pixels\nHeight : 718 pixels\nDisplay aspect ratio : 16:9\nFrame rate mode : Variable\nFrame rate : 23.976 fps\nMinimum frame rate : 23.810 fps\nMaximum frame rate : 1 000.000 fps\nColor space : YUV\nChroma subsampling : 4:2:0\nBit depth : 8 bits\nScan type : Progressive\nBits/(Pixel*Frame) : 0.055\nStream size : 365 MiB (92%)\nWriting library : x264 core 130 r2273 b3065e6\n\nEncoded date : UTC 2014-07-16 04:28:43\nTagged date : UTC 2014-07-16 05:33:27\nColor primaries : BT.709\nTransfer characteristics : BT.709\nMatrix coefficients : BT.709\n\nAudio\nID : 2\nFormat : AAC\nFormat/Info : Advanced Audio Codec\nFormat profile : LC\nCodec ID : 40\nDuration : 41mn 56s\nBit rate mode : Variable\nBit rate : 96.0 Kbps\nMaximum bit rate : 193 Kbps\nChannel(s) : 2 channels\nChannel positions : Front: L R\nSampling rate : 48.0 KHz\nCompression mode : Lossy\nStream size : 28.8 MiB (7%)\nLanguage : English\nEncoded date : UTC 2014-07-16 04:28:43\nTagged date : UTC 2014-07-16 05:33:26\n\n\nEpisode number: 4x3\n\nAirdate: Monday July 07th, 2014 ","torrent":{"xt":"urn:btih:c8b24ba8374fe352d16e5c868f99cc320616a0a5","amp;dn":"Teen+Wolf+Season+4+EP3+Muted+WEB-DL","amp;tr":["udp%3A%2F%2Ftracker.openbittorrent.com%3A80","udp%3A%2F%2Fopen.demonii.com%3A1337","udp%3A%2F%2Ftracker.coppersurfer.tk%3A6969","udp%3A%2F%2Fexodus.desync.com%3A6969"],"infoHash":"c8b24ba8374fe352d16e5c868f99cc320616a0a5","infoHashBuffer":{"type":"Buffer","data":[200,178,75,168,55,79,227,82,209,110,92,134,143,153,204,50,6,22,160,165]},"announce":[],"urlList":[]}}